<svg xmlns="http://www.w3.org/2000/svg" width="260" height="47" viewBox="0 0 260 47" fill="none"><path d="M117.99 29.9016H117.975V7.34165L112.114 7.63519V0.783644L121.549 0.440628C124.287 0.34278 125.802 1.8116 125.802 4.55134V29.9016H132.645L141.561 36.7532H117.99V29.9016Z" fill="#E5E145"></path><path d="M140.985 11.5601C148.707 11.5601 154.866 15.7583 154.866 24.35C154.866 32.991 148.707 37.1893 140.985 37.1893C133.213 37.1893 127.055 32.991 127.055 24.35C127.052 15.7583 133.213 11.5601 140.985 11.5601ZM140.985 30.3545C144.65 30.3545 147.044 28.5 147.044 24.35C147.044 20.2494 144.65 18.3948 140.985 18.3948C137.27 18.3948 134.875 20.2494 134.875 24.35C134.875 28.5 137.27 30.3545 140.985 30.3545Z" fill="#E5E145"></path><path d="M154.651 0.87207H162.456V13.5954L160.993 17.9826H162.941C164.209 14.7169 166.551 11.5968 172.648 11.5968C179.771 11.5968 183.331 17.4011 183.331 24.3684C183.331 31.3357 179.77 37.1892 172.648 37.1892C166.551 37.1892 164.21 34.0691 162.941 30.8034H160.989L162.452 35.1906V36.7019H154.648L154.651 0.87207ZM168.993 30.3643C173.187 30.3643 175.529 28.5124 175.529 24.3684C175.529 20.2243 173.187 18.4217 168.993 18.4217C164.798 18.4217 162.456 20.2254 162.456 24.3684C162.456 28.5113 164.798 30.3643 168.993 30.3643Z" fill="#E5E145"></path><path d="M205.252 29.9016H212.123V7.34165L206.234 7.63519V0.783644L215.706 0.440628C218.454 0.34278 219.975 1.8116 219.975 4.55134V29.9016H219.96V36.7532H205.252V29.9016Z" fill="#E5E145"></path><path d="M111.936 14.2C109.345 12.2904 105.923 11.5601 102.162 11.5601C94.3896 11.5601 88.2302 14.6938 88.2302 21.2056C88.2302 29.3332 97.762 30.6554 106.805 27.4237V29.3816C102.308 30.4596 97.225 31.0469 91.6037 31.6343L92.4339 36.0408C100.011 34.7681 108.859 33.1523 108.859 36.7755C108.859 39.4682 105.828 39.7135 89.8433 39.7135V46.5685C108.174 46.5685 116.729 45.7358 116.729 38.4398C116.729 33.2018 111.499 31.73 105.877 32.0754C112.671 29.7743 117.022 26.8363 117.022 22.1846C117.026 21.402 116.889 20.6252 116.618 19.8912C116.521 19.7141 116.428 19.5326 116.337 19.3412C114.547 15.62 111.936 14.2 111.936 14.2ZM102.652 24.9719C97.9586 24.9719 96.0522 23.7971 96.0522 21.6918C96.0522 19.6349 97.9586 18.4117 102.652 18.4117C107.345 18.4117 109.202 19.6349 109.202 21.6918C109.199 23.7971 107.341 24.9719 102.652 24.9719Z" fill="#E5E145"></path><path d="M206.921 29.8665V22.9341C206.921 14.8305 200.961 11.5601 194.172 11.5601C193.608 11.5601 193.056 11.5864 192.515 11.6357C186.45 12.1841 181.961 15.7331 181.961 21.47H189.288C189.288 19.3577 190.844 18.0702 193.629 17.921C193.805 17.9112 193.985 17.9057 194.172 17.9057C197.542 17.9057 199.11 19.1263 199.11 21.1278L191.343 22.2026C190.363 22.3397 189.471 22.5042 188.657 22.6939C186.622 23.1688 185.088 23.8115 183.972 24.634C182.196 25.9424 181.477 27.7049 181.477 29.9641C181.477 32.503 182.794 37.1893 190.464 37.1893C197.351 37.1893 199.744 33.7236 200.669 29.6219H202.624L201.402 32.5502V33.0382C201.402 35.3819 202.719 36.7001 205.065 36.7001H210.487V29.8654L206.921 29.8665ZM191.974 30.3545C190.657 30.3545 189.288 29.9158 189.288 28.5C189.288 27.0841 190.46 26.7452 192.799 26.4009L199.1 25.5235C199.106 28.5482 196.272 30.3545 191.974 30.3545Z" fill="#E5E145"></path><path d="M70.7793 33.5296C72.6211 32.0949 74.1109 30.2586 75.1352 28.1606C76.1594 26.0627 76.6909 23.7585 76.6893 21.4239C76.6909 19.0893 76.1594 16.7851 75.1352 14.6872C74.1109 12.5892 72.6211 10.7529 70.7793 9.3182C68.0824 7.20357 64.7532 6.05631 61.326 6.06056C57.2516 6.06085 53.3441 7.67961 50.4632 10.5608C47.5822 13.4419 45.9637 17.3495 45.9637 21.4239C45.9637 25.4982 47.5823 29.4057 50.4633 32.2867C53.3442 35.1677 57.2517 36.7862 61.326 36.7862C64.753 36.7903 68.082 35.6435 70.7793 33.5296Z" fill="white"></path><path d="M30.6896 20.3802V1.38623C28.6757 1.38567 26.6953 1.90148 24.9375 2.88442C23.1798 3.86735 21.7034 5.28456 20.6495 7.00066C18.9564 6.37757 17.1663 6.05928 15.3622 6.06056C11.2878 6.06085 7.38039 7.67961 4.49944 10.5608C1.61849 13.4419 -1.0266e-08 17.3495 0 21.4239C0 25.4982 1.61851 29.4057 4.49949 32.2867C7.38047 35.1677 11.2879 36.7862 15.3622 36.7862C18.7892 36.7905 22.1184 35.6437 24.8156 33.5296C26.6574 32.095 28.1472 30.2586 29.1714 28.1606C30.1956 26.0627 30.7272 23.7585 30.7256 21.4239C30.7256 21.0738 30.7125 20.727 30.6896 20.3802Z" fill="white"></path><path d="M38.2424 13.2183C37.4739 13.2183 36.7128 13.3697 36.0028 13.6639C35.2928 13.958 34.6477 14.3892 34.1043 14.9328C33.561 15.4763 33.13 16.1216 32.8361 16.8317C32.5422 17.5419 32.3911 18.303 32.3914 19.0715V36.7873C35.5152 36.7873 38.5112 35.5464 40.7201 33.3375C42.929 31.1286 44.1699 28.1327 44.1699 25.0088V19.1566C44.1708 18.3774 44.0181 17.6058 43.7207 16.8856C43.4232 16.1655 42.9868 15.511 42.4364 14.9595C41.8859 14.408 41.2322 13.9704 40.5126 13.6717C39.793 13.3729 39.0216 13.2188 38.2424 13.2183Z" fill="white"></path><path d="M88.4734 30.8956C88.4734 32.4575 87.853 33.9555 86.7485 35.06C85.6441 36.1644 84.1461 36.7849 82.5842 36.7849C81.0223 36.7849 79.5243 36.1644 78.4198 35.06C77.3154 33.9555 76.6949 32.4575 76.6949 30.8956C76.6949 29.3337 77.3154 27.8357 78.4198 26.7313C79.5243 25.6268 81.0223 25.0063 82.5842 25.0063C84.1461 25.0063 85.6441 25.6268 86.7485 26.7313C87.853 27.8357 88.4734 29.3337 88.4734 30.8956Z" fill="white"></path><path d="M38.2839 13.1694C41.5383 13.1694 44.1764 10.5312 44.1764 7.27682C44.1764 4.02246 41.5383 1.38428 38.2839 1.38428C35.0295 1.38428 32.3914 4.02246 32.3914 7.27682C32.3914 10.5312 35.0295 13.1694 38.2839 13.1694Z" fill="white"></path><path d="M255.201 17.5583C257.851 17.5583 260 15.4098 260 12.7596C260 10.1094 257.851 7.96094 255.201 7.96094C252.551 7.96094 250.402 10.1094 250.402 12.7596C250.402 15.4098 252.551 17.5583 255.201 17.5583Z" fill="#E5E145"></path><path d="M228.154 28.7931C230.804 28.7931 232.953 26.6447 232.953 23.9945C232.953 21.3442 230.804 19.1958 228.154 19.1958C225.504 19.1958 223.356 21.3442 223.356 23.9945C223.356 26.6447 225.504 28.7931 228.154 28.7931Z" fill="#E5E145"></path><path d="M247.24 36.7547C249.89 36.7547 252.039 34.5819 252.039 31.9015C252.039 29.2212 249.89 27.0483 247.24 27.0483C244.59 27.0483 242.441 29.2212 242.441 31.9015C242.441 34.5819 244.59 36.7547 247.24 36.7547Z" fill="#E5E145"></path><path d="M236.061 9.70638C238.741 9.70638 240.914 7.53354 240.914 4.85319C240.914 2.17285 238.741 0 236.061 0C233.381 0 231.208 2.17285 231.208 4.85319C231.208 7.53354 233.381 9.70638 236.061 9.70638Z" fill="#E5E145"></path><path d="M236.061 36.7547C238.741 36.7547 240.914 34.5819 240.914 31.9015C240.914 29.2212 238.741 27.0483 236.061 27.0483C233.381 27.0483 231.208 29.2212 231.208 31.9015C231.208 34.5819 233.381 36.7547 236.061 36.7547Z" fill="#E5E145"></path><path d="M247.24 9.70638C249.89 9.70638 252.039 7.53354 252.039 4.85319C252.039 2.17285 249.89 0 247.24 0C244.59 0 242.441 2.17285 242.441 4.85319C242.441 7.53354 244.59 9.70638 247.24 9.70638Z" fill="#E5E145"></path><path d="M255.147 28.7931C257.827 28.7931 260 26.6447 260 23.9945C260 21.3442 257.827 19.1958 255.147 19.1958C252.466 19.1958 250.294 21.3442 250.294 23.9945C250.294 26.6447 252.466 28.7931 255.147 28.7931Z" fill="#E5E145"></path><path d="M228.154 17.5583C230.804 17.5583 232.953 15.4098 232.953 12.7596C232.953 10.1094 230.804 7.96094 228.154 7.96094C225.504 7.96094 223.356 10.1094 223.356 12.7596C223.356 15.4098 225.504 17.5583 228.154 17.5583Z" fill="#E5E145"></path><path d="M115.174 18.793C115.855 18.3567 116.728 18.3567 117.457 18.3567H119.107V11.5601H116.971C114.789 11.5601 112.262 11.8022 110.805 13.6955C110.805 13.6955 113.399 15.1034 115.174 18.793Z" fill="#E5E145"></path></svg>